# xmcd
#
# Track frame offsets:
#	150
#	12830
#	25285
#	35124
#	45096
#	56533
#	66677
#	76812
#	87912
#	99475
#	110214
#	120717
#	130920
#	142076
#	152564
#	166413
#
# Disc length: 2346 seconds
#
# Revision: 5
# Processed by: cddbd v1.5.2PL0 Copyright (c) Steve Scherf et al.
# Submitted via: EasyCDDAExtractor 9.1.0.1
#
DISCID=d8092810
DTITLE=Various Artist - The Great Country Superstars - Volume 1 - Disc 1
DYEAR=1900
DGENRE=Country
TTITLE0=Johnny Cash - Folsom Prison Blues
TTITLE1=Johnny Cash - I Walk The Line
TTITLE2=Johnny Cash - Rock Island Line
TTITLE3=Johnny Cash - Ballad Of A Teenage Queen
TTITLE4=Johnny Cash - Big River
TTITLE5=Johnny Cash - Hey Porter
TTITLE6=Johnny Cash - Get Rhythm
TTITLE7=Johnny Cash - Cry, Cry, Cry
TTITLE8=Patsy Cline - Walking After Midnight
TTITLE9=Patsy Cline - Honky Tonk Merry-Go-Round
TTITLE10=Patsy Cline - Lovesick Blues
TTITLE11=Patsy Cline - Three Cigarettes In An Ashtray
TTITLE12=Patsy Cline - Stranger In My Arms
TTITLE13=Patsy Cline - I Love You Honey
TTITLE14=Patsy Cline - A  Church, A Courtroom and The Goodbye
TTITLE15=Patsy Cline - I'm  Moving On
EXTD=
EXTT0=
EXTT1=
EXTT2=
EXTT3=
EXTT4=
EXTT5=
EXTT6=
EXTT7=
EXTT8=
EXTT9=
EXTT10=
EXTT11=
EXTT12=
EXTT13=
EXTT14=
EXTT15=
PLAYORDER=
